<?xml version="1.0" encoding="UTF-8"?>
<svg version="1.1" xmlns="http://www.w3.org/2000/svg" width="200" height="200">
<path d="M0 0 C66 0 132 0 200 0 C200 66 200 132 200 200 C134 200 68 200 0 200 C0 134 0 68 0 0 Z " fill="#543E5B" transform="translate(0,0)"/>
<path d="M0 0 C1.65 0 3.3 0 5 0 C5.2475 0.9075 5.495 1.815 5.75 2.75 C6.74977085 6.02935874 6.74977085 6.02935874 9 7.9375 C12.29341545 11.33383468 12.92813906 15.31126784 13.125 19.9375 C13.08375 20.618125 13.0425 21.29875 13 22 C11.68 22.33 10.36 22.66 9 23 C9 22.34 9 21.68 9 21 C8.34 21 7.68 21 7 21 C9.0058619 25.64515387 11.0620242 27.91347843 15 31 C15 31.99 15 32.98 15 34 C12.6875 34.625 12.6875 34.625 10 35 C8.515 34.01 8.515 34.01 7 33 C5.68 33 4.36 33 3 33 C7.455 36.96 7.455 36.96 12 41 C11.67 41.99 11.34 42.98 11 44 C9.68 44.33 8.36 44.66 7 45 C9.97 45.99 12.94 46.98 16 48 C15.67 48.99 15.34 49.98 15 51 C11.02022924 51.8441938 7.02992782 52.44687265 3 53 C3.33 51.02 3.66 49.04 4 47 C2.515 47.495 2.515 47.495 1 48 C0.90912109 49.04800781 0.90912109 49.04800781 0.81640625 50.1171875 C0.73261719 51.02726562 0.64882812 51.93734375 0.5625 52.875 C0.48128906 53.77992187 0.40007812 54.68484375 0.31640625 55.6171875 C0 58 0 58 -1 60 C-1.66 60 -2.32 60 -3 60 C-3.33 59.34 -3.66 58.68 -4 58 C-4.99 58 -5.98 58 -7 58 C-7.38550953 60.62146478 -7.45744794 62.3579678 -5.88671875 64.5625 C-5.20029297 65.3359375 -5.20029297 65.3359375 -4.5 66.125 C-2 69 -2 69 -2 72 C-3.65 71.67 -5.3 71.34 -7 71 C-6.34 72.32 -5.68 73.64 -5 75 C-3.05334084 74.79962233 -3.05334084 74.79962233 -1 74 C0.23707777 72.22234047 0.23707777 72.22234047 1.0625 70.0625 C2.45588364 66.76741681 2.85581541 66.09612306 6 64 C6 64.99 6 65.98 6 67 C7.939509 66.80811844 7.939509 66.80811844 10 66 C11.34231442 64.16016576 11.34231442 64.16016576 12.25 61.9375 C12.58515625 61.20402344 12.9203125 60.47054687 13.265625 59.71484375 C13.62914063 58.86599609 13.62914063 58.86599609 14 58 C16 58 16 58 17.625 59.5 C18.07875 59.995 18.5325 60.49 19 61 C21.33524782 58.74259377 23.18705073 56.7194239 25 54 C25.66 54 26.32 54 27 54 C27.33 54.99 27.66 55.98 28 57 C27.34 57.99 26.68 58.98 26 60 C27.98 59.67 29.96 59.34 32 59 C31.67 60.98 31.34 62.96 31 65 C31.99 64.34 32.98 63.68 34 63 C36.32387947 62.60612212 38.65793749 62.26513915 41 62 C41.33 61.01 41.66 60.02 42 59 C40.35 58.34 38.7 57.68 37 57 C37 54 37 54 38 52 C37.34 52 36.68 52 36 52 C35.2575 51.030625 34.515 50.06125 33.75 49.0625 C31.78074736 46.60815287 31.20949286 46.06240213 28.0625 45.125 C25.95998084 45.03918289 23.8538808 45.02204075 21.75 45.0625 C19 45 19 45 17 43 C16.6875 39.5 16.6875 39.5 17 36 C20 34 20 34 22.5625 34.1875 C25 35 25 35 27 38 C25.02 38 23.04 38 21 38 C20.505 38.99 20.505 38.99 20 40 C20.556875 39.91878906 21.11375 39.83757812 21.6875 39.75390625 C25.38286797 39.44803964 27.99521927 39.36933975 31.203125 41.3828125 C34.19989127 44.02499955 36.87268939 46.86026884 39.5625 49.8125 C42.66503382 52.59682523 44.96429938 53.12955477 49 54 C49 54.33 49 54.66 49 55 C46.69 55 44.38 55 42 55 C42.33 55.66 42.66 56.32 43 57 C46.63 56.34 50.26 55.68 54 55 C53.67 56.98 53.34 58.96 53 61 C54.98 61.33 56.96 61.66 59 62 C58.57200914 70.27449001 55.95555804 77.33299888 53 85 C49.5443489 85 48.28241273 84.17844361 45.3125 82.5 C40.7040274 80.18244442 37.10421572 78.49277688 32 80 C27.83159994 82.21306186 23.36407416 84.63592584 20 88 C21.98 88.495 21.98 88.495 24 89 C24 89.66 24 90.32 24 91 C20.09971775 93.60018816 16.52565431 93.15085514 12 93 C12.33 93.66 12.66 94.32 13 95 C13.039992 96.99960012 13.04346799 99.00047242 13 101 C12.05125 100.979375 11.1025 100.95875 10.125 100.9375 C7.09333717 100.77448174 7.09333717 100.77448174 5 102 C4.34 101.01 3.68 100.02 3 99 C-0.01213005 98.37470764 -0.01213005 98.37470764 -3.4375 98.25 C-4.59121094 98.17265625 -5.74492188 98.0953125 -6.93359375 98.015625 C-10.04219174 97.83569855 -10.04219174 97.83569855 -13 99 C-13.680625 98.278125 -14.36125 97.55625 -15.0625 96.8125 C-17.05114557 94.79014858 -19.03443374 93.30774123 -21.4375 91.8125 C-26.929476 88.03901977 -30.70904167 81.49982507 -32 75 C-32.99 75.495 -32.99 75.495 -34 76 C-36.33009456 76.14848642 -38.6653555 76.22129535 -41 76.25 C-42.258125 76.27578125 -43.51625 76.3015625 -44.8125 76.328125 C-45.864375 76.21984375 -46.91625 76.1115625 -48 76 C-50.35119399 72.47320901 -50.21443452 70.97120515 -50.125 66.8125 C-50.10695313 65.72582031 -50.08890625 64.63914062 -50.0703125 63.51953125 C-50.04710937 62.68808594 -50.02390625 61.85664062 -50 61 C-51.0725 61.04125 -52.145 61.0825 -53.25 61.125 C-58.46341463 60.95121951 -58.46341463 60.95121951 -61 59 C-61.75 56.875 -61.75 56.875 -62 55 C-61.34 55.33 -60.68 55.66 -60 56 C-55.85496339 56.24787017 -55.85496339 56.24787017 -52 55 C-51.97303635 53.20841511 -51.95362083 51.41671527 -51.9375 49.625 C-51.92589844 48.62726563 -51.91429687 47.62953125 -51.90234375 46.6015625 C-51.81993398 44.01567547 -51.81993398 44.01567547 -53 42 C-51.68 42.33 -50.36 42.66 -49 43 C-48.34 45.31 -47.68 47.62 -47 50 C-46.34 47.03 -45.68 44.06 -45 41 C-44.01 41.66 -43.02 42.32 -42 43 C-41.8125 46 -41.8125 46 -42 49 C-42 49.66 -42 50.32 -42 51 C-40.02 50.34 -38.04 49.68 -36 49 C-37.24976756 52.65316671 -37.67098753 53.78065836 -41 56 C-42.65549531 56.38499891 -44.3222433 56.72793135 -46 57 C-46 60.3 -46 63.6 -46 67 C-44.68 67.33 -43.36 67.66 -42 68 C-38.14968072 65.55833411 -36.20925297 62.91640299 -34 59 C-33.54109375 58.59007812 -33.0821875 58.18015625 -32.609375 57.7578125 C-30.33632488 55.27511212 -29.26498952 52.49614844 -27.875 49.4375 C-25.0347766 43.42648644 -21.63108136 38.83961046 -16.91796875 34.0859375 C-14.92762565 32.12939508 -14.92762565 32.12939508 -13.96484375 29.8046875 C-13 28 -13 28 -9.375 26.75 C-8.26125 26.5025 -7.1475 26.255 -6 26 C-6.33773437 25.50371094 -6.67546875 25.00742188 -7.0234375 24.49609375 C-10.87843456 18.62446528 -13.43680563 13.20729282 -13 6 C-12.62875 6.515625 -12.2575 7.03125 -11.875 7.5625 C-10.946875 8.7690625 -10.946875 8.7690625 -10 10 C-9.36191406 10.86818359 -9.36191406 10.86818359 -8.7109375 11.75390625 C-5.15910339 16.30291304 -2.69690863 17.97455645 3 19 C2.360625 18.236875 1.72125 17.47375 1.0625 16.6875 C-1.80051259 12.95690784 -2.12182321 10.38038742 -2.0625 5.8125 C-2.05347656 4.91144531 -2.04445312 4.01039062 -2.03515625 3.08203125 C-2.02355469 2.39496094 -2.01195312 1.70789062 -2 1 C-0.45428722 3.31856917 0.79618552 5.50638429 2 8 C1.67 7.236875 1.34 6.47375 1 5.6875 C0 3 0 3 0 0 Z " fill="#F6CC97" transform="translate(101,41)"/>
<path d="M0 0 C0.02578125 0.71285156 0.0515625 1.42570312 0.078125 2.16015625 C0.45951117 8.60038186 1.36749002 12.66475096 5 18 C5.495 18.99 5.495 18.99 6 20 C0.43549353 19.86088734 -2.30281329 17.42713774 -6.265625 13.88671875 C-7.98990595 12.01098069 -8.99327851 10.32675937 -10 8 C-9.04412855 14.36409151 -7.86907292 18.84123611 -4 24 C-4 24.66 -4 25.32 -4 26 C-4.86625 26.350625 -5.7325 26.70125 -6.625 27.0625 C-10.80260435 29.46075435 -13.06623825 32.25211936 -16 36 C-16.556875 36.64839844 -17.11375 37.29679687 -17.6875 37.96484375 C-23.03854237 44.37892802 -26.48307393 51.48510933 -30 59 C-30.66 59 -31.32 59 -32 59 C-32.20625 59.721875 -32.4125 60.44375 -32.625 61.1875 C-34.50917059 65.0414853 -36.44617527 66.58339918 -40 69 C-42.35560128 68.8726702 -43.34378382 68.65621618 -45 67 C-45.07205511 65.31391034 -45.08386068 63.62499341 -45.0625 61.9375 C-45.05347656 61.01839844 -45.04445313 60.09929687 -45.03515625 59.15234375 C-45.02355469 58.44207031 -45.01195312 57.73179688 -45 57 C-42.03 55.68 -39.06 54.36 -36 53 C-36 52.34 -36 51.68 -36 51 C-38.97 51.495 -38.97 51.495 -42 52 C-41.91621094 51.36191406 -41.83242188 50.72382812 -41.74609375 50.06640625 C-41.64425781 49.24011719 -41.54242188 48.41382813 -41.4375 47.5625 C-41.33308594 46.73878906 -41.22867188 45.91507813 -41.12109375 45.06640625 C-41.08113281 44.38449219 -41.04117188 43.70257813 -41 43 C-41.33 42.67 -41.66 42.34 -42 42 C-42.99 44.97 -43.98 47.94 -45 51 C-45.33 51 -45.66 51 -46 51 C-46.66 48.36 -47.32 45.72 -48 43 C-48.495 43.495 -48.495 43.495 -49 44 C-48.99095847 46.81643589 -48.86690826 49.6200401 -48.7421875 52.43359375 C-48.82726563 53.28050781 -48.91234375 54.12742188 -49 55 C-52.22791555 57.1519437 -53.28400809 57.20086443 -57 57 C-58.05452581 43.55479598 -51.45872775 29.67909393 -43.3125 19.25 C-31.83761061 6.98163421 -16.79426838 -0.60824312 0 0 Z " fill="#1F2F79" transform="translate(99,41)"/>
<path d="M0 0 C2.4375 0.8125 2.4375 0.8125 4.4375 3.8125 C2.4575 3.8125 0.4775 3.8125 -1.5625 3.8125 C-1.8925 4.4725 -2.2225 5.1325 -2.5625 5.8125 C-2.005625 5.73128906 -1.44875 5.65007812 -0.875 5.56640625 C2.82036797 5.26053964 5.43271927 5.18183975 8.640625 7.1953125 C11.63739127 9.83749955 14.31018939 12.67276884 17 15.625 C20.10253382 18.40932523 22.40179938 18.94205477 26.4375 19.8125 C26.4375 20.1425 26.4375 20.4725 26.4375 20.8125 C24.1275 20.8125 21.8175 20.8125 19.4375 20.8125 C19.9325 21.8025 19.9325 21.8025 20.4375 22.8125 C25.8825 21.8225 25.8825 21.8225 31.4375 20.8125 C31.1075 22.7925 30.7775 24.7725 30.4375 26.8125 C32.4175 27.1425 34.3975 27.4725 36.4375 27.8125 C36.02161954 34.00768473 34.83498106 39.07939311 32.4375 44.8125 C31.83421875 44.46316406 31.2309375 44.11382812 30.609375 43.75390625 C29.81015625 43.29886719 29.0109375 42.84382813 28.1875 42.375 C27.00414062 41.69630859 27.00414062 41.69630859 25.796875 41.00390625 C20.30931751 38.23287143 14.47522487 38.09277121 8.4375 38.8125 C3.53701236 40.56517798 -0.72438706 43.16757444 -4.9375 46.1875 C-7.5625 47.8125 -7.5625 47.8125 -9.9375 47.5625 C-10.47375 47.315 -11.01 47.0675 -11.5625 46.8125 C-11.2325 45.8225 -10.9025 44.8325 -10.5625 43.8125 C-12.50324861 44.08867533 -12.50324861 44.08867533 -14.5625 44.8125 C-15.2225 45.8025 -15.8825 46.7925 -16.5625 47.8125 C-18.9453125 48.32421875 -18.9453125 48.32421875 -21.6875 48.5 C-23.05261719 48.59861328 -23.05261719 48.59861328 -24.4453125 48.69921875 C-25.49332031 48.75529297 -25.49332031 48.75529297 -26.5625 48.8125 C-27.2225 51.1225 -27.8825 53.4325 -28.5625 55.8125 C-34.43650307 55.25307114 -38.30308484 53.37738388 -42.23828125 48.91015625 C-47.80189935 41.77969582 -48.31068545 35.80189236 -47.5625 26.8125 C-45.57803416 17.48979355 -38.49224634 8.12159482 -31.390625 1.9140625 C-29.5625 0.8125 -29.5625 0.8125 -27.3125 1.125 C-26.735 1.351875 -26.1575 1.57875 -25.5625 1.8125 C-27.2125 3.1325 -28.8625 4.4525 -30.5625 5.8125 C-29.1703125 5.7196875 -29.1703125 5.7196875 -27.75 5.625 C-24.5625 5.8125 -24.5625 5.8125 -22.6875 7.3125 C-22.31625 7.8075 -21.945 8.3025 -21.5625 8.8125 C-22.7690625 9.1528125 -22.7690625 9.1528125 -24 9.5 C-24.845625 9.933125 -25.69125 10.36625 -26.5625 10.8125 C-26.91018823 12.47623128 -27.24107963 14.14349496 -27.5625 15.8125 C-28.9375 18.3828125 -28.9375 18.3828125 -30.5625 20.9375 C-34.10458798 26.54012954 -35.57523903 31.17731327 -34.5625 37.8125 C-32.04415527 41.47554688 -30.35966189 42.56610451 -26.125 43.875 C-21.7625264 43.79846538 -19.77752646 42.50262418 -16.5625 39.8125 C-8.1485375 32.87417342 -1.28670457 28.11054384 9.4375 25.8125 C8.9425 28.2875 8.9425 28.2875 8.4375 30.8125 C9.4275 30.1525 10.4175 29.4925 11.4375 28.8125 C13.76137947 28.41862212 16.09543749 28.07763915 18.4375 27.8125 C18.9325 26.3275 18.9325 26.3275 19.4375 24.8125 C17.7875 24.1525 16.1375 23.4925 14.4375 22.8125 C14.4375 19.8125 14.4375 19.8125 15.4375 17.8125 C14.7775 17.8125 14.1175 17.8125 13.4375 17.8125 C12.695 16.843125 11.9525 15.87375 11.1875 14.875 C9.21824736 12.42065287 8.64699286 11.87490213 5.5 10.9375 C3.39748084 10.85168289 1.2913808 10.83454075 -0.8125 10.875 C-3.5625 10.8125 -3.5625 10.8125 -5.5625 8.8125 C-5.875 5.3125 -5.875 5.3125 -5.5625 1.8125 C-2.5625 -0.1875 -2.5625 -0.1875 0 0 Z " fill="#FE4455" transform="translate(123.5625,75.1875)"/>
<path d="M0 0 C0.99 0 1.98 0 3 0 C4.54642808 5.6702363 5.48517081 11.147205 6 17 C7.0828125 17.309375 7.0828125 17.309375 8.1875 17.625 C12.39752443 19.68323416 15.14337605 22.69972554 16.76953125 27.06640625 C17.19641869 28.4219611 17.58826643 29.78937858 17.93359375 31.16796875 C19.64268909 34.1041069 21.89595668 34.76921073 25 36 C28.61361415 36.74184144 28.61361415 36.74184144 32.3125 37.125 C38.91103203 37.91103203 38.91103203 37.91103203 40 39 C40.14031566 36.07797583 40.14031566 36.07797583 39 33 C36.24212948 31.69364028 33.89509233 30.82218629 31 30 C23.30872483 27.46308725 23.30872483 27.46308725 21 24 C21.375 20.3125 21.375 20.3125 22 17 C22.33 17 22.66 17 23 17 C23.495 20.96 23.495 20.96 24 25 C24.64066406 25.18175781 25.28132813 25.36351563 25.94140625 25.55078125 C39.48739496 29.48739496 39.48739496 29.48739496 43 33 C43.72072513 39.00604274 42.04349052 42.98863006 39 48 C38 49 38 49 34.3125 49.0625 C27.58362728 48.29069069 18.81649961 43.81649961 14 39 C12.48530552 38.76807135 10.96245438 38.58784762 9.4375 38.4375 C8.61121094 38.35371094 7.78492187 38.26992187 6.93359375 38.18359375 C5.97646484 38.09271484 5.97646484 38.09271484 5 38 C5.33 37.01 5.66 36.02 6 35 C7.65 35 9.3 35 11 35 C10.34 34.34 9.68 33.68 9 33 C5.90073181 33.32198966 5.90073181 33.32198966 3 34 C2.95758277 36.33294775 2.95907063 38.66702567 3 41 C3.495 41.495 3.495 41.495 4 42 C5.54280277 41.91428874 7.08438325 41.806188 8.625 41.6875 C13.79353826 41.60581333 16.14522325 42.9864572 19.8203125 46.4921875 C21 48 21 48 21 50 C21.66 50 22.32 50 23 50 C22.67 51.32 22.34 52.64 22 54 C23.65 54.99 25.3 55.98 27 57 C26.67 58.32 26.34 59.64 26 61 C24.906875 61.144375 23.81375 61.28875 22.6875 61.4375 C19.06877013 61.88288104 19.06877013 61.88288104 16 63 C16.33 61.02 16.66 59.04 17 57 C14.03 57.495 14.03 57.495 11 58 C11.33 56.02 11.66 54.04 12 52 C11.4225 52.5775 10.845 53.155 10.25 53.75 C8.16666667 55.83333333 6.08333333 57.91666667 4 60 C3.01 59.34 2.02 58.68 1 58 C1 57.34 1 56.68 1 56 C-1.96865509 58.54456151 -3.3619751 61.48994665 -5 65 C-6.32 65 -7.64 65 -9 65 C-9.33 64.34 -9.66 63.68 -10 63 C-12.33837246 65.86982074 -13.64750293 68.57367409 -15 72 C-15.99 72.99 -15.99 72.99 -17 74 C-19.125 73.625 -19.125 73.625 -21 73 C-21.33 71.68 -21.66 70.36 -22 69 C-20.35 69.33 -18.7 69.66 -17 70 C-18.84318459 65.87137857 -18.84318459 65.87137857 -21.6875 62.4375 C-23 61 -23 61 -23.1875 58.3125 C-23.125625 57.549375 -23.06375 56.78625 -23 56 C-21.02 55.505 -21.02 55.505 -19 55 C-18.67 55.99 -18.34 56.98 -18 58 C-17.34 58 -16.68 58 -16 58 C-15.67 54.04 -15.34 50.08 -15 46 C-13.02 45.505 -13.02 45.505 -11 45 C-10.4375 46.9375 -10.4375 46.9375 -10 49 C-10.495 49.495 -10.495 49.495 -11 50 C-8.99875639 49.67421616 -6.99897128 49.33944795 -5 49 C-4.071875 48.855625 -3.14375 48.71125 -2.1875 48.5625 C-1.465625 48.376875 -0.74375 48.19125 0 48 C0.33 47.34 0.66 46.68 1 46 C0.04287109 45.81824219 0.04287109 45.81824219 -0.93359375 45.6328125 C-1.75988281 45.46523437 -2.58617188 45.29765625 -3.4375 45.125 C-4.26121094 44.96257812 -5.08492187 44.80015625 -5.93359375 44.6328125 C-6.61550781 44.42398438 -7.29742187 44.21515625 -8 44 C-8.33 43.34 -8.66 42.68 -9 42 C-6.525 41.505 -6.525 41.505 -4 41 C-4 40.34 -4 39.68 -4 39 C-5.75521948 37.26306842 -5.75521948 37.26306842 -7.9375 35.5 C-11.89879154 32.20241692 -11.89879154 32.20241692 -13 30 C-9.26988106 30.5021314 -5.64243404 31.05566525 -2 32 C-1.34 32 -0.68 32 0 32 C-0.78843565 28.72214692 -0.78843565 28.72214692 -4 26.625 C-7 24 -7 24 -7.875 21.1875 C-7.91625 20.465625 -7.9575 19.74375 -8 19 C-7.34 19 -6.68 19 -6 19 C-6 19.66 -6 20.32 -6 21 C-5.01 20.67 -4.02 20.34 -3 20 C-3.12568359 18.86111328 -3.12568359 18.86111328 -3.25390625 17.69921875 C-3.35574219 16.70535156 -3.45757812 15.71148437 -3.5625 14.6875 C-3.66691406 13.70136719 -3.77132812 12.71523438 -3.87890625 11.69921875 C-4 9 -4 9 -3 6 C-2.34 5.67 -1.68 5.34 -1 5 C-0.34444881 2.47266765 -0.34444881 2.47266765 0 0 Z " fill="#23A352" transform="translate(116,43)"/>
<path d="M0 0 C1.65 0 3.3 0 5 0 C5.2475 0.9075 5.495 1.815 5.75 2.75 C6.74977085 6.02935874 6.74977085 6.02935874 9 7.9375 C12.29341545 11.33383468 12.92813906 15.31126784 13.125 19.9375 C13.08375 20.618125 13.0425 21.29875 13 22 C11.68 22.33 10.36 22.66 9 23 C9 22.34 9 21.68 9 21 C8.34 21 7.68 21 7 21 C9.0058619 25.64515387 11.0620242 27.91347843 15 31 C15 31.99 15 32.98 15 34 C12.6875 34.625 12.6875 34.625 10 35 C9.01 34.34 8.02 33.68 7 33 C5.68 33 4.36 33 3 33 C7.455 36.96 7.455 36.96 12 41 C11.67 41.99 11.34 42.98 11 44 C9.02 44.495 9.02 44.495 7 45 C9.97 45.99 12.94 46.98 16 48 C15.67 48.99 15.34 49.98 15 51 C11.02022924 51.8441938 7.02992782 52.44687265 3 53 C3.33 51.02 3.66 49.04 4 47 C2.515 47.495 2.515 47.495 1 48 C0.93941406 48.69867188 0.87882812 49.39734375 0.81640625 50.1171875 C0.73261719 51.02726562 0.64882812 51.93734375 0.5625 52.875 C0.48128906 53.77992187 0.40007812 54.68484375 0.31640625 55.6171875 C0 58 0 58 -1 60 C-1.66 60 -2.32 60 -3 60 C-3.33 59.34 -3.66 58.68 -4 58 C-4.99 58 -5.98 58 -7 58 C-7.38550953 60.62146478 -7.45744794 62.3579678 -5.88671875 64.5625 C-5.42910156 65.078125 -4.97148438 65.59375 -4.5 66.125 C-2 69 -2 69 -2 72 C-3.65 71.67 -5.3 71.34 -7 71 C-6.34 72.32 -5.68 73.64 -5 75 C-3.05334084 74.79962233 -3.05334084 74.79962233 -1 74 C0.23707777 72.22234047 0.23707777 72.22234047 1.0625 70.0625 C2.45588364 66.76741681 2.85581541 66.09612306 6 64 C6 64.99 6 65.98 6 67 C7.939509 66.80811844 7.939509 66.80811844 10 66 C11.34231442 64.16016576 11.34231442 64.16016576 12.25 61.9375 C12.58515625 61.20402344 12.9203125 60.47054687 13.265625 59.71484375 C13.50796875 59.14894531 13.7503125 58.58304688 14 58 C16 58 16 58 17.625 59.5 C18.07875 59.995 18.5325 60.49 19 61 C21.33524782 58.74259377 23.18705073 56.7194239 25 54 C25.66 54 26.32 54 27 54 C27.33 54.99 27.66 55.98 28 57 C27.34 57.99 26.68 58.98 26 60 C28.97 59.505 28.97 59.505 32 59 C29.62825811 61.37174189 27.6999308 61.95815317 24.5625 63.125 C16.86466594 66.24299288 10.71628324 70.91228692 4.3671875 76.1875 C1.44531096 78.4247124 -0.32751431 78.92505131 -4 79 C-8.06488126 77.48563247 -11.1099207 75.99016742 -13 72 C-14.69335784 63.96082641 -10.81491757 57.82929544 -7 51 C-6.48953125 49.91912109 -6.48953125 49.91912109 -5.96875 48.81640625 C-4.49205745 46.04760772 -2.2601647 44.14120866 0 42 C-2.95664519 40.5216774 -5.74229737 40.93967217 -9 41 C-8 38 -8 38 -5 36 C-7.64 33.69 -10.28 31.38 -13 29 C-9 27 -9 27 -6 26 C-6.33773437 25.50371094 -6.67546875 25.00742188 -7.0234375 24.49609375 C-10.87843456 18.62446528 -13.43680563 13.20729282 -13 6 C-12.62875 6.515625 -12.2575 7.03125 -11.875 7.5625 C-10.946875 8.7690625 -10.946875 8.7690625 -10 10 C-9.36191406 10.86818359 -9.36191406 10.86818359 -8.7109375 11.75390625 C-5.15910339 16.30291304 -2.69690863 17.97455645 3 19 C2.360625 18.236875 1.72125 17.47375 1.0625 16.6875 C-1.80051259 12.95690784 -2.12182321 10.38038742 -2.0625 5.8125 C-2.05347656 4.91144531 -2.04445313 4.01039062 -2.03515625 3.08203125 C-2.02355469 2.39496094 -2.01195313 1.70789062 -2 1 C-0.45428722 3.31856917 0.79618552 5.50638429 2 8 C1.67 7.236875 1.34 6.47375 1 5.6875 C0 3 0 3 0 0 Z " fill="#F5B537" transform="translate(101,41)"/>
<path d="M0 0 C2.97 0.33 5.94 0.66 9 1 C9.06058594 1.84304687 9.12117188 2.68609375 9.18359375 3.5546875 C9.26738281 4.65039062 9.35117187 5.74609375 9.4375 6.875 C9.51871094 7.96554688 9.59992187 9.05609375 9.68359375 10.1796875 C9.83001703 12.94728971 9.83001703 12.94728971 11 15 C16.28 15 21.56 15 27 15 C32.875 25.625 32.875 25.625 34 29 C35.76591887 30.00916033 35.76591887 30.00916033 38 31 C43.39833426 33.98631257 46.32635286 37.53440275 49 43 C49 43.66 49 44.32 49 45 C48.01 44.67 47.02 44.34 46 44 C43.66700175 43.96045766 41.33291811 43.95598268 39 44 C39 44.33 39 44.66 39 45 C41.64 45.66 44.28 46.32 47 47 C47 47.33 47 47.66 47 48 C46.43410156 48.10957031 45.86820313 48.21914062 45.28515625 48.33203125 C44.55167969 48.49058594 43.81820312 48.64914063 43.0625 48.8125 C42.33160156 48.96332031 41.60070312 49.11414063 40.84765625 49.26953125 C40.23792969 49.51058594 39.62820312 49.75164062 39 50 C38.67 50.99 38.34 51.98 38 53 C22.30117186 48.25812523 12.5702549 36.94874018 5 23 C1.56760173 15.56853393 -0.43380257 8.24224888 0 0 Z " fill="#1F2F79" transform="translate(42,101)"/>
<path d="M0 0 C6.84086931 3.13337115 6.84086931 3.13337115 8.296875 5.85546875 C8.32481033 10.98625842 3.49221604 15.33669805 0.30859375 19.0078125 C-10.5125484 29.59801564 -24.5353764 37.12298372 -39.94140625 37.1953125 C-41.17890625 37.1334375 -42.41640625 37.0715625 -43.69140625 37.0078125 C-44.07273924 35.0164069 -44.40466207 33.01502173 -44.69140625 31.0078125 C-42.47834714 28.79475339 -37.47200258 29.55452052 -34.4765625 29.38671875 C-31.55556192 29.2755231 -31.55556192 29.2755231 -29.69140625 27.0078125 C-29.67034031 23.64358051 -29.67034031 23.64358051 -30.06640625 19.8828125 C-30.17726563 18.60148437 -30.288125 17.32015625 -30.40234375 16 C-30.49773437 15.01257813 -30.593125 14.02515625 -30.69140625 13.0078125 C-29.45390625 12.8634375 -28.21640625 12.7190625 -26.94140625 12.5703125 C-24.12636126 12.22092748 -21.42125655 11.80401884 -18.69140625 11.0078125 C-18.69140625 10.3478125 -18.69140625 9.6878125 -18.69140625 9.0078125 C-20.34140625 9.0078125 -21.99140625 9.0078125 -23.69140625 9.0078125 C-17.09836284 1.79667128 -10.01698861 -3.69276503 0 0 Z " fill="#1F2F79" transform="translate(143.69140625,120.9921875)"/>
<path d="M0 0 C0.5775 0.226875 1.155 0.45375 1.75 0.6875 C0.1 2.0075 -1.55 3.3275 -3.25 4.6875 C-1.8578125 4.5946875 -1.8578125 4.5946875 -0.4375 4.5 C2.75 4.6875 2.75 4.6875 4.625 6.1875 C4.99625 6.6825 5.3675 7.1775 5.75 7.6875 C4.5434375 8.0278125 4.5434375 8.0278125 3.3125 8.375 C2.466875 8.808125 1.62125 9.24125 0.75 9.6875 C0.40231177 11.35123128 0.07142037 13.01849496 -0.25 14.6875 C-1.625 17.2578125 -1.625 17.2578125 -3.25 19.8125 C-6.79208798 25.41512954 -8.26273903 30.05231327 -7.25 36.6875 C-4.73165527 40.35054688 -3.04716189 41.44110451 1.1875 42.75 C5.57301701 42.67306111 7.3583452 41.36927357 10.75 38.6875 C11.74 38.1925 11.74 38.1925 12.75 37.6875 C13.4375 39.9375 13.4375 39.9375 13.75 42.6875 C12.59375 44.8125 12.59375 44.8125 10.75 46.6875 C8.26953125 47.296875 8.26953125 47.296875 5.5625 47.4375 C4.66144531 47.49421875 3.76039062 47.5509375 2.83203125 47.609375 C2.14496094 47.63515625 1.45789063 47.6609375 0.75 47.6875 C0.09 49.9975 -0.57 52.3075 -1.25 54.6875 C-7.12400307 54.12807114 -10.99058484 52.25238388 -14.92578125 47.78515625 C-20.48939935 40.65469582 -20.99818545 34.67689236 -20.25 25.6875 C-18.26553416 16.36479355 -11.17974634 6.99659482 -4.078125 0.7890625 C-2.25 -0.3125 -2.25 -0.3125 0 0 Z " fill="#E80454" transform="translate(96.25,76.3125)"/>
<path d="M0 0 C2.76906954 1.60380498 4.63887593 3.5861124 6.7265625 6 C5.7365625 7.98 4.7465625 9.96 3.7265625 12 C2.56640625 11.3503125 2.56640625 11.3503125 1.3828125 10.6875 C-5.98827842 6.4750367 -5.98827842 6.4750367 -14.1875 5.328125 C-19.19693479 6.94165081 -24.54058373 10.26714623 -28.2734375 14 C-26.9534375 14.33 -25.6334375 14.66 -24.2734375 15 C-24.2734375 15.66 -24.2734375 16.32 -24.2734375 17 C-28.17371975 19.60018816 -31.74778319 19.15085514 -36.2734375 19 C-35.9434375 19.66 -35.6134375 20.32 -35.2734375 21 C-35.2334455 22.99960012 -35.22996951 25.00047242 -35.2734375 27 C-36.2221875 26.979375 -37.1709375 26.95875 -38.1484375 26.9375 C-41.18010033 26.77448174 -41.18010033 26.77448174 -43.2734375 28 C-43.9334375 27.01 -44.5934375 26.02 -45.2734375 25 C-47.69865244 24.41810734 -47.69865244 24.41810734 -50.3984375 24.3125 C-51.30851562 24.24675781 -52.21859375 24.18101562 -53.15625 24.11328125 C-53.85492188 24.07589844 -54.55359375 24.03851563 -55.2734375 24 C-55.2734375 23.67 -55.2734375 23.34 -55.2734375 23 C-53.2934375 22.67 -51.3134375 22.34 -49.2734375 22 C-51.2534375 20.35 -53.2334375 18.7 -55.2734375 17 C-53.21088084 9.86038078 -53.21088084 9.86038078 -50.2734375 8 C-48.25587042 7.77582588 -46.23758158 7.55416782 -44.21484375 7.3828125 C-41.34892859 6.81770247 -40.01670451 5.25171989 -38.2734375 3 C-37.2834375 3.33 -36.2934375 3.66 -35.2734375 4 C-35.6034375 4.99 -35.9334375 5.98 -36.2734375 7 C-32.37832421 6.4445349 -29.95468487 5.35322214 -26.7734375 3.0625 C-18.56070845 -2.82232522 -9.4395829 -4.0399861 0 0 Z " fill="#F67185" transform="translate(149.2734375,115)"/>
<path d="M0 0 C13.29115426 3.4862044 24.13784158 12.71511877 31.15234375 24.3984375 C32 26 32 26 32 27 C23.87009063 26.65256798 23.87009063 26.65256798 20.5 24.125 C19 22 19 22 18 19 C17.85968434 21.92202417 17.85968434 21.92202417 19 25 C21.75787052 26.30635972 24.10490767 27.17781371 27 28 C34.69127517 30.53691275 34.69127517 30.53691275 37 34 C37.125 36.6875 37.125 36.6875 37 39 C36.14535156 38.68804687 35.29070312 38.37609375 34.41015625 38.0546875 C30.01713894 36.69602235 25.679344 36.2624951 21.12109375 35.7578125 C17.45443249 34.8675343 15.64351386 33.67193874 13 31 C12.13671875 28.8515625 12.13671875 28.8515625 11.6875 26.625 C10.58012446 22.67192683 9.3790059 21.21593366 5.9375 19 C2.6526133 16.82413927 1.39384746 15.43148937 0.5 11.5625 C-0.06427604 7.69130388 -0.1661433 3.90436761 0 0 Z " fill="#1E3078" transform="translate(120,44)"/>
<path d="M0 0 C0.99 0 1.98 0 3 0 C4.54642808 5.6702363 5.48517081 11.147205 6 17 C7.0828125 17.309375 7.0828125 17.309375 8.1875 17.625 C12.39752443 19.68323416 15.14337605 22.69972554 16.76953125 27.06640625 C17.19641869 28.4219611 17.58826643 29.78937858 17.93359375 31.16796875 C19.64268909 34.1041069 21.89595668 34.76921073 25 36 C28.61361415 36.74184144 28.61361415 36.74184144 32.3125 37.125 C38.91103203 37.91103203 38.91103203 37.91103203 40 39 C40.14031566 36.07797583 40.14031566 36.07797583 39 33 C36.24212948 31.69364028 33.89509233 30.82218629 31 30 C23.30872483 27.46308725 23.30872483 27.46308725 21 24 C21.375 20.3125 21.375 20.3125 22 17 C22.33 17 22.66 17 23 17 C23.33 19.64 23.66 22.28 24 25 C24.64066406 25.18175781 25.28132813 25.36351563 25.94140625 25.55078125 C39.48739496 29.48739496 39.48739496 29.48739496 43 33 C43.72072513 39.00604274 42.04349052 42.98863006 39 48 C38 49 38 49 34.3125 49.0625 C27.58362728 48.29069069 18.81649961 43.81649961 14 39 C12.48530552 38.76807135 10.96245438 38.58784762 9.4375 38.4375 C8.61121094 38.35371094 7.78492187 38.26992187 6.93359375 38.18359375 C5.97646484 38.09271484 5.97646484 38.09271484 5 38 C5.33 37.01 5.66 36.02 6 35 C7.65 35 9.3 35 11 35 C10.38125 34.13375 9.7625 33.2675 9.125 32.375 C6.39747142 28.04304284 5.1748255 24.44855417 4.5625 19.375 C3.98192437 15.89154622 3.17790288 14.65136003 1 12 C1 11.01 1 10.02 1 9 C0.01 8.67 -0.98 8.34 -2 8 C-1.34 5.36 -0.68 2.72 0 0 Z " fill="#299D53" transform="translate(116,43)"/>
<path d="M0 0 C0.99 0 1.98 0 3 0 C3.5625 1.9375 3.5625 1.9375 4 4 C3.67 4.33 3.34 4.66 3 5 C6.68266103 4.40049704 10.34543185 3.75241109 14 3 C14.33 3.66 14.66 4.32 15 5 C15.99 4.34 16.98 3.68 18 3 C21.91700154 2.48908676 23.52938973 2.69308026 26.875 4.875 C27.57625 5.57625 28.2775 6.2775 29 7 C29 7.66 29 8.32 29 9 C28.01 9 27.02 9 26 9 C26 8.34 26 7.68 26 7 C25.13375 7.86625 25.13375 7.86625 24.25 8.75 C22.16666667 10.83333333 20.08333333 12.91666667 18 15 C17.01 14.34 16.02 13.68 15 13 C15 12.34 15 11.68 15 11 C12.03134491 13.54456151 10.6380249 16.48994665 9 20 C7.68 20 6.36 20 5 20 C4.67 19.34 4.34 18.68 4 18 C1.66162754 20.86982074 0.35249707 23.57367409 -1 27 C-1.66 27.66 -2.32 28.32 -3 29 C-5.125 28.625 -5.125 28.625 -7 28 C-7.33 26.68 -7.66 25.36 -8 24 C-6.35 24.33 -4.7 24.66 -3 25 C-4.84318459 20.87137857 -4.84318459 20.87137857 -7.6875 17.4375 C-9 16 -9 16 -9.1875 13.3125 C-9.125625 12.549375 -9.06375 11.78625 -9 11 C-7.68 10.67 -6.36 10.34 -5 10 C-4.67 10.99 -4.34 11.98 -4 13 C-3.34 13 -2.68 13 -2 13 C-1.93941406 12.14535156 -1.87882812 11.29070312 -1.81640625 10.41015625 C-1.73261719 9.30542969 -1.64882812 8.20070313 -1.5625 7.0625 C-1.48128906 5.96035156 -1.40007812 4.85820313 -1.31640625 3.72265625 C-1 1 -1 1 0 0 Z " fill="#203278" transform="translate(102,88)"/>
<path d="M0 0 C2.27155498 0.08702126 4.54230743 0.19519522 6.8125 0.3125 C8.07707031 0.37050781 9.34164062 0.42851562 10.64453125 0.48828125 C14 1 14 1 15.94921875 2.54296875 C16.29597656 3.02378906 16.64273438 3.50460938 17 4 C17.33 3.67 17.66 3.34 18 3 C19.66617115 2.95936168 21.33388095 2.957279 23 3 C24.36118461 5.24195113 25.06138028 6.47826762 24.75 9.125 C24 11 24 11 22 13 C19.1796875 13.4140625 19.1796875 13.4140625 15.875 13.625 C14.77929688 13.69976562 13.68359375 13.77453125 12.5546875 13.8515625 C11.71164063 13.90054688 10.86859375 13.94953125 10 14 C9.34 17.3 8.68 20.6 8 24 C6.68 24.33 5.36 24.66 4 25 C4.20625 24.278125 4.4125 23.55625 4.625 22.8125 C5.05952211 19.55358415 4.41680669 17.91695496 3 15 C-2.26053037 14.68436818 -5.44573816 15.33409063 -10 18 C-9.875 15.6875 -9.875 15.6875 -9 13 C-5.9375 11.1875 -5.9375 11.1875 -3 10 C-7.10223585 8.98459888 -7.10223585 8.98459888 -11 10 C-10.34 8.68 -9.68 7.36 -9 6 C-2.375 5.75 -2.375 5.75 1 8 C0.649375 7.05125 0.29875 6.1025 -0.0625 5.125 C-1 2 -1 2 0 0 Z " fill="#EE4C5A" transform="translate(90,138)"/>
<path d="M0 0 C0.99 0.66 1.98 1.32 3 2 C3.1875 5 3.1875 5 3 8 C3 8.66 3 9.32 3 10 C4.98 9.34 6.96 8.68 9 8 C7.75023244 11.65316671 7.32901247 12.78065836 4 15 C2.34450469 15.38499891 0.6777567 15.72793135 -1 16 C-1 19.3 -1 22.6 -1 26 C0.32 26.33 1.64 26.66 3 27 C6.85934216 24.55261229 8.73296231 21.88635033 11 18 C11.66 18 12.32 18 13 18 C13 23.28 13 28.56 13 34 C10.03144127 35.48427936 7.30088341 35.20941537 4 35.25 C2.741875 35.27578125 1.48375 35.3015625 0.1875 35.328125 C-0.864375 35.21984375 -1.91625 35.1115625 -3 35 C-5.35119399 31.47320901 -5.21443452 29.97120515 -5.125 25.8125 C-5.10695313 24.72582031 -5.08890625 23.63914062 -5.0703125 22.51953125 C-5.04710937 21.68808594 -5.02390625 20.85664062 -5 20 C-6.0725 20.04125 -7.145 20.0825 -8.25 20.125 C-13.46341463 19.95121951 -13.46341463 19.95121951 -16 18 C-16.75 15.875 -16.75 15.875 -17 14 C-16.01 14.495 -16.01 14.495 -15 15 C-10.85496339 15.24787017 -10.85496339 15.24787017 -7 14 C-6.97303635 12.20841511 -6.95362083 10.41671527 -6.9375 8.625 C-6.92589844 7.62726563 -6.91429687 6.62953125 -6.90234375 5.6015625 C-6.81993398 3.01567547 -6.81993398 3.01567547 -8 1 C-6.68 1.33 -5.36 1.66 -4 2 C-3.34 4.31 -2.68 6.62 -2 9 C-1.34 6.03 -0.68 3.06 0 0 Z " fill="#F24C5A" transform="translate(56,82)"/>
<path d="M0 0 C0.56847656 0.19335938 1.13695313 0.38671875 1.72265625 0.5859375 C2.49480469 0.84632812 3.26695313 1.10671875 4.0625 1.375 C4.88621094 1.65472656 5.70992188 1.93445313 6.55859375 2.22265625 C9.17328299 3.09445138 9.17328299 3.09445138 12.625 3.8125 C16.97262552 5.34222009 19.72319756 7.8327563 23 11 C22.67 11.99 22.34 12.98 22 14 C20.68 14.33 19.36 14.66 18 15 C20.97 15.99 23.94 16.98 27 18 C26.67 18.99 26.34 19.98 26 21 C22.02022924 21.8441938 18.02992782 22.44687265 14 23 C14.33 21.02 14.66 19.04 15 17 C14.01 17.33 13.02 17.66 12 18 C11.93941406 18.69867188 11.87882812 19.39734375 11.81640625 20.1171875 C11.73261719 21.02726562 11.64882812 21.93734375 11.5625 22.875 C11.48128906 23.77992187 11.40007812 24.68484375 11.31640625 25.6171875 C11 28 11 28 10 30 C9.34 30 8.68 30 8 30 C7.67 29.34 7.34 28.68 7 28 C6.01 28 5.02 28 4 28 C3.34 28.66 2.68 29.32 2 30 C1.34 30 0.68 30 0 30 C1.32394812 25.36618157 3.27602464 21.95415778 6 18 C6.33 17.01 6.66 16.02 7 15 C9.0625 13.3125 9.0625 13.3125 11 12 C8.04335481 10.5216774 5.25770263 10.93967217 2 11 C3 8 3 8 6 6 C5.01 5.195625 4.02 4.39125 3 3.5625 C2.01 2.716875 1.02 1.87125 0 1 C0 0.67 0 0.34 0 0 Z " fill="#FCB033" transform="translate(90,71)"/>
<path d="M0 0 C0.5775 0.226875 1.155 0.45375 1.75 0.6875 C0.1 2.0075 -1.55 3.3275 -3.25 4.6875 C-2.321875 4.625625 -1.39375 4.56375 -0.4375 4.5 C2.75 4.6875 2.75 4.6875 4.625 6.1875 C4.99625 6.6825 5.3675 7.1775 5.75 7.6875 C4.5434375 8.0278125 4.5434375 8.0278125 3.3125 8.375 C2.466875 8.808125 1.62125 9.24125 0.75 9.6875 C0.39955999 11.35065384 0.06912371 13.0180543 -0.25 14.6875 C-1.58984375 17.2578125 -1.58984375 17.2578125 -3.1875 19.8125 C-3.71214844 20.66070312 -4.23679687 21.50890625 -4.77734375 22.3828125 C-5.91530768 24.16371096 -7.07768327 25.9290249 -8.25 27.6875 C-12.06730192 26.89522979 -14.60676024 26.31236148 -17.4375 23.5625 C-18.25 20.6875 -18.25 20.6875 -16.9375 17 C-6.67856269 -0.92757815 -6.67856269 -0.92757815 0 0 Z " fill="#FE4455" transform="translate(96.25,76.3125)"/>
<path d="M0 0 C2.4375 0.8125 2.4375 0.8125 4.4375 3.8125 C2.4575 3.8125 0.4775 3.8125 -1.5625 3.8125 C-1.8925 4.4725 -2.2225 5.1325 -2.5625 5.8125 C-2.005625 5.73128906 -1.44875 5.65007812 -0.875 5.56640625 C2.82036797 5.26053964 5.43271927 5.18183975 8.640625 7.1953125 C11.63739127 9.83749955 14.31018939 12.67276884 17 15.625 C20.10253382 18.40932523 22.40179938 18.94205477 26.4375 19.8125 C26.4375 20.1425 26.4375 20.4725 26.4375 20.8125 C24.1275 20.8125 21.8175 20.8125 19.4375 20.8125 C19.7675 21.4725 20.0975 22.1325 20.4375 22.8125 C25.8825 21.8225 25.8825 21.8225 31.4375 20.8125 C31.1075 22.7925 30.7775 24.7725 30.4375 26.8125 C32.4175 27.1425 34.3975 27.4725 36.4375 27.8125 C36.4375 29.1325 36.4375 30.4525 36.4375 31.8125 C32.28263646 31.20149066 29.16051851 29.71199924 25.4375 27.8125 C23.9525 27.3484375 23.9525 27.3484375 22.4375 26.875 C19.0133577 25.66228293 16.38328525 23.91663232 13.4375 21.8125 C14.0975 20.4925 14.7575 19.1725 15.4375 17.8125 C14.7775 17.8125 14.1175 17.8125 13.4375 17.8125 C12.695 16.843125 11.9525 15.87375 11.1875 14.875 C9.21824736 12.42065287 8.64699286 11.87490213 5.5 10.9375 C3.39748084 10.85168289 1.2913808 10.83454075 -0.8125 10.875 C-3.5625 10.8125 -3.5625 10.8125 -5.5625 8.8125 C-5.875 5.3125 -5.875 5.3125 -5.5625 1.8125 C-2.5625 -0.1875 -2.5625 -0.1875 0 0 Z " fill="#E20755" transform="translate(123.5625,75.1875)"/>
<path d="M0 0 C2.76906954 1.60380498 4.63887593 3.5861124 6.7265625 6 C5.7365625 7.98 4.7465625 9.96 3.7265625 12 C2.56640625 11.3503125 2.56640625 11.3503125 1.3828125 10.6875 C-6.58731791 6.42624216 -10.9283353 5.15603649 -19.8359375 6.5625 C-23.54632188 7.03473074 -26.60948318 6.6729712 -30.2734375 6 C-22.87483116 -3.00699902 -10.35156303 -4.43029858 0 0 Z " fill="#F8F0D8" transform="translate(149.2734375,115)"/>
<path d="M0 0 C0.99 0 1.98 0 3 0 C4.54642808 5.6702363 5.48517081 11.147205 6 17 C7.0828125 17.309375 7.0828125 17.309375 8.1875 17.625 C12.39752443 19.68323416 15.14337605 22.69972554 16.76953125 27.06640625 C16.98996094 27.76636719 17.21039063 28.46632813 17.4375 29.1875 C18.49674975 32.23720807 18.86017213 32.89427649 21.5625 34.9375 C26.02052673 36.31543554 30.355832 36.73383227 35 37 C33.7265625 38.9609375 33.7265625 38.9609375 32 41 C26.83900169 41.8898273 23.84815058 41.27510314 19.375 38.5625 C15.32691193 35.63617127 12.86207559 32.35478007 10.38671875 28.05078125 C9.0870215 25.8786481 9.0870215 25.8786481 6.8671875 24.4453125 C5 23 5 23 4.4375 19.5625 C4.293125 18.386875 4.14875 17.21125 4 16 C2.51199628 13.7927642 2.51199628 13.7927642 1 12 C1 11.01 1 10.02 1 9 C0.01 8.67 -0.98 8.34 -2 8 C-1.34 5.36 -0.68 2.72 0 0 Z " fill="#36C072" transform="translate(116,43)"/>
<path d="M0 0 C2.8605891 1.35937085 4.85927699 2.64520469 7 5 C6.10925781 5.68835938 5.21851562 6.37671875 4.30078125 7.0859375 C0.94202366 9.88704065 -1.40744235 12.99878571 -3.8125 16.625 C-4.20630859 17.19734375 -4.60011719 17.7696875 -5.00585938 18.359375 C-6.72146943 20.89012054 -8.028174 23.084522 -9 26 C-11.375 25.75 -11.375 25.75 -14 25 C-15.33984375 23.30859375 -15.33984375 23.30859375 -16 21 C-12.7977498 12.52201192 -6.63628113 5.95910959 0 0 Z " fill="#FAF1D9" transform="translate(88,71)"/>
<path d="M0 0 C1.65 0 3.3 0 5 0 C5.2475 0.9075 5.495 1.815 5.75 2.75 C6.74977085 6.02935874 6.74977085 6.02935874 9 7.9375 C12.29341545 11.33383468 12.92813906 15.31126784 13.125 19.9375 C13.08375 20.618125 13.0425 21.29875 13 22 C11.68 22.33 10.36 22.66 9 23 C9 22.34 9 21.68 9 21 C8.278125 20.95875 7.55625 20.9175 6.8125 20.875 C2.83391804 19.63721895 1.39255176 17.32298855 -1 14 C-2.00496852 10.98509443 -2.10335303 8.95818308 -2.0625 5.8125 C-2.05347656 4.91144531 -2.04445313 4.01039062 -2.03515625 3.08203125 C-2.02355469 2.39496094 -2.01195313 1.70789062 -2 1 C-0.45428722 3.31856917 0.79618552 5.50638429 2 8 C1.67 7.236875 1.34 6.47375 1 5.6875 C0 3 0 3 0 0 Z " fill="#F8B034" transform="translate(101,41)"/>
<path d="M0 0 C0.99 0.33 1.98 0.66 3 1 C2.67 1.99 2.34 2.98 2 4 C2.8353125 3.89171875 2.8353125 3.89171875 3.6875 3.78125 C8.8359445 3.15508783 13.81463038 2.90572055 19 3 C16.14723863 5.93200474 13.34920216 8.64315404 10 11 C11.32 11.33 12.64 11.66 14 12 C14 12.66 14 13.32 14 14 C10.93064974 16.04623351 7.72091714 16.71140887 4.0390625 16.65625 C0.37883594 15.47824605 -1.05562031 12.4214356 -2.96875 9.26171875 C-4 7 -4 7 -4 4 C-2 1.8125 -2 1.8125 0 0 Z " fill="#F8AC35" transform="translate(111,118)"/>
<path d="M0 0 C0.56976563 0.28617187 1.13953125 0.57234375 1.7265625 0.8671875 C9.92218902 5.20777361 9.92218902 5.20777361 19 6 C19.99 4.02 20.98 2.04 22 0 C25.66829266 5.50243899 25.12789125 11.60543766 25 18 C23.02 17.67 21.04 17.34 19 17 C19.33 15.02 19.66 13.04 20 11 C16.37 11.99 12.74 12.98 9 14 C8.67 13.01 8.34 12.02 8 11 C8.99 10.67 9.98 10.34 11 10 C10.113125 9.649375 9.22625 9.29875 8.3125 8.9375 C4.130793 6.4915959 2.59544888 4.04584679 0 0 Z " fill="#263477" transform="translate(135,85)"/>
<path d="M0 0 C4.62 2.31 9.24 4.62 14 7 C14 7.66 14 8.32 14 9 C15.65 9.66 17.3 10.32 19 11 C19 11.33 19 11.66 19 12 C18.24074219 12.06058594 17.48148438 12.12117187 16.69921875 12.18359375 C15.20841797 12.30927734 15.20841797 12.30927734 13.6875 12.4375 C12.70136719 12.51871094 11.71523437 12.59992188 10.69921875 12.68359375 C7.90624401 12.91812559 7.90624401 12.91812559 5 14 C4.319375 13.278125 3.63875 12.55625 2.9375 11.8125 C0.83544051 9.6923193 -1.36407472 7.95693063 -3.8125 6.25 C-4.864375 5.5075 -5.91625 4.765 -7 4 C-7 3.67 -7 3.34 -7 3 C-5.5459375 2.5359375 -5.5459375 2.5359375 -4.0625 2.0625 C-1.15934208 1.30476658 -1.15934208 1.30476658 0 0 Z " fill="#F0CD95" transform="translate(83,126)"/>
<path d="M0 0 C0.66 0 1.32 0 2 0 C2.33 0.99 2.66 1.98 3 3 C2.01 4.485 2.01 4.485 1 6 C2.98 5.67 4.96 5.34 7 5 C4.62037143 7.37962857 2.64279035 8.00085365 -0.5 9.1875 C-5.94397337 11.366398 -10.2695161 14.09804783 -14.84375 17.7421875 C-17 19 -17 19 -19.28125 18.6953125 C-19.8484375 18.46585938 -20.415625 18.23640625 -21 18 C-21.33 16.68 -21.66 15.36 -22 14 C-20.9275 13.835 -19.855 13.67 -18.75 13.5 C-16.15625719 12.79500702 -15.21855238 12.30861863 -13.64453125 10.0859375 C-12.6642 8.08280578 -11.78181017 6.08806442 -11 4 C-9 4 -9 4 -7.375 5.5 C-6.92125 5.995 -6.4675 6.49 -6 7 C-3.66475218 4.74259377 -1.81294927 2.7194239 0 0 Z " fill="#F4BE3C" transform="translate(126,95)"/>
<path d="M0 0 C4.82034262 0.41317222 6.90992611 2.38019915 10 6 C10 6.66 10 7.32 10 8 C10.66 8 11.32 8 12 8 C11.67 9.32 11.34 10.64 11 12 C12.65 12.99 14.3 13.98 16 15 C15.67 16.32 15.34 17.64 15 19 C13.3603125 19.2165625 13.3603125 19.2165625 11.6875 19.4375 C8.06877013 19.88288104 8.06877013 19.88288104 5 21 C5.33 19.02 5.66 17.04 6 15 C4.02 15.33 2.04 15.66 0 16 C0.66 14.68 1.32 13.36 2 12 C2.66 12 3.32 12 4 12 C3.67 11.01 3.34 10.02 3 9 C3 8.34 3 7.68 3 7 C2.44520708 3.05879786 2.44520708 3.05879786 0 0 Z " fill="#2DA355" transform="translate(127,85)"/>
<path d="M0 0 C0.66 0.33 1.32 0.66 2 1 C1.67 2.32 1.34 3.64 1 5 C1.99 4.34 2.98 3.68 4 3 C5.7634375 2.7525 5.7634375 2.7525 7.5625 2.5 C11.0571192 2.34152243 11.0571192 2.34152243 13 0 C24.80676856 3.23253275 24.80676856 3.23253275 28 6 C28.3125 8.6875 28.3125 8.6875 28 11 C24.07071726 11 23.40555184 10.83592014 20.25 9.0625 C15.06439232 6.58695865 10.05887282 6.4507151 4.40917969 6.32836914 C-0.81292148 6.18707852 -0.81292148 6.18707852 -3 4 C-3 3.01 -3 2.02 -3 1 C-2.01 0.67 -1.02 0.34 0 0 Z " fill="#FD6E81" transform="translate(131,101)"/>
<path d="M0 0 C2.27156921 0.06001504 4.54239274 0.14879968 6.8125 0.25 C8.07707031 0.29640625 9.34164062 0.3428125 10.64453125 0.390625 C14 1 14 1 16.01171875 2.734375 C17 5 17 5 16 10 C12.37 10 8.74 10 5 10 C3.33333333 6.66666667 1.66666667 3.33333333 0 0 Z " fill="#233079" transform="translate(90,138)"/>
<path d="M0 0 C0.89332031 0.12761719 1.78664062 0.25523438 2.70703125 0.38671875 C3.60808594 0.50660156 4.50914062 0.62648438 5.4375 0.75 C6.12457031 0.85699219 6.81164062 0.96398437 7.51953125 1.07421875 C7.51953125 1.40421875 7.51953125 1.73421875 7.51953125 2.07421875 C5.20953125 2.07421875 2.89953125 2.07421875 0.51953125 2.07421875 C0.84953125 2.73421875 1.17953125 3.39421875 1.51953125 4.07421875 C6.96453125 3.08421875 6.96453125 3.08421875 12.51953125 2.07421875 C12.18953125 4.05421875 11.85953125 6.03421875 11.51953125 8.07421875 C14.48953125 8.56921875 14.48953125 8.56921875 17.51953125 9.07421875 C17.51953125 10.39421875 17.51953125 11.71421875 17.51953125 13.07421875 C13.36466771 12.46320941 10.24254976 10.97371799 6.51953125 9.07421875 C5.52953125 8.76484375 4.53953125 8.45546875 3.51953125 8.13671875 C0.09538895 6.92400168 -2.5346835 5.17835107 -5.48046875 3.07421875 C-3.68981165 0.76004728 -2.99175075 0.08951695 0 0 Z " fill="#ECAC4A" transform="translate(142.48046875,93.92578125)"/>
<path d="M0 0 C0.75074106 1.72996853 1.49777964 3.46196889 2.203125 5.2109375 C3.1783929 7.40050954 4.46222013 9.16930968 6 11 C5.34 12.32 4.68 13.64 4 15 C1.75 15.3125 1.75 15.3125 -1 15 C-3.57353133 12.3529392 -5.79290961 9.51153567 -7 6 C-6.875 3.375 -6.875 3.375 -6 1 C-2.69333333 -1.34666667 -2.69333333 -1.34666667 0 0 Z " fill="#FAF0D8" transform="translate(77,114)"/>
<path d="M0 0 C0.66 0 1.32 0 2 0 C2 5.28 2 10.56 2 16 C-0.95664519 17.4783226 -3.74229737 17.06032783 -7 17 C-7 8 -7 8 -4.625 5.4375 C-3.75875 4.633125 -2.8925 3.82875 -2 3 C-1.34 2.01 -0.68 1.02 0 0 Z " fill="#F9879A" transform="translate(67,100)"/>
<path d="M0 0 C3.23475448 1.61737724 4.70572021 2.47629223 7 5 C5.50260417 6.20442708 4.00520833 7.40885417 2.5078125 8.61328125 C0.74707893 10.12270545 0.74707893 10.12270545 -1 13 C-5.08072342 12.44855089 -5.91330796 12.08669204 -9 9 C-6.03 6.03 -3.06 3.06 0 0 Z " fill="#F5D096" transform="translate(88,71)"/>
<path d="M0 0 C2.6875 -0.375 2.6875 -0.375 6 0 C9.93899445 4.02851705 13 7.26319948 13 13 C9.83312684 13.32722507 8.40850274 13.28730647 5.76171875 11.42578125 C5.07722656 10.72839844 4.39273438 10.03101563 3.6875 9.3125 C2.99011719 8.62800781 2.29273437 7.94351563 1.57421875 7.23828125 C-0.28730647 4.59149726 -0.32722507 3.16687316 0 0 Z " fill="#FB8798" transform="translate(100,123)"/>
<path d="M0 0 C0 1.98 0 3.96 0 6 C-4.94398474 7.9775939 -8.75198038 8.34413243 -14 8 C-14.99 7.34 -15.98 6.68 -17 6 C-15.39805929 5.01719585 -13.79336258 4.03888283 -12.1875 3.0625 C-11.29417969 2.51722656 -10.40085937 1.97195312 -9.48046875 1.41015625 C-5.86405592 -0.64578868 -3.93724498 -1.22190362 0 0 Z " fill="#F8D094" transform="translate(136,114)"/>
<path d="M0 0 C0.56847656 0.19335938 1.13695313 0.38671875 1.72265625 0.5859375 C5.46260995 1.84715728 9.17908494 3.06953871 13 4.0625 C13.99 4.371875 14.98 4.68125 16 5 C16.33 5.66 16.66 6.32 17 7 C15.35 7.33 13.7 7.66 12 8 C12.66 8.45375 13.32 8.9075 14 9.375 C14.66 9.91125 15.32 10.4475 16 11 C16 11.66 16 12.32 16 13 C11.25 12.125 11.25 12.125 9 11 C6.6670134 10.95977609 4.33293334 10.95679753 2 11 C3 8 3 8 6 6 C5.01 5.195625 4.02 4.39125 3 3.5625 C2.01 2.716875 1.02 1.87125 0 1 C0 0.67 0 0.34 0 0 Z " fill="#FDAC32" transform="translate(90,71)"/>
<path d="M0 0 C0.99 0.66 1.98 1.32 3 2 C3.1875 5 3.1875 5 3 8 C3 8.66 3 9.32 3 10 C4.98 9.34 6.96 8.68 9 8 C7.75023244 11.65316671 7.32901247 12.78065836 4 15 C1.35982365 15.81779841 -1.30270591 16.3809489 -4 17 C-3.27246734 13.19281452 -2.38723428 9.44514431 -1.4375 5.6875 C-1.16808594 4.61886719 -0.89867187 3.55023438 -0.62109375 2.44921875 C-0.41613281 1.64097656 -0.21117187 0.83273438 0 0 Z " fill="#F67A81" transform="translate(56,82)"/>
<path d="M0 0 C1.61648437 0.04060547 1.61648437 0.04060547 3.265625 0.08203125 C4.08546875 0.11683594 4.9053125 0.15164062 5.75 0.1875 C2.58047153 3.44758643 -0.64937989 6.40987877 -4.25 9.1875 C-6.6875 8.4375 -6.6875 8.4375 -9.25 7.1875 C-10.0625 5.0625 -10.0625 5.0625 -10.25 3.1875 C-6.86416198 0.05642164 -4.53890538 -0.14800778 0 0 Z " fill="#FCC43E" transform="translate(124.25,120.8125)"/>
<path d="M0 0 C2.97 0.33 5.94 0.66 9 1 C9 2.98 9 4.96 9 7 C8.01 7.33 7.02 7.66 6 8 C5.67 8.99 5.34 9.98 5 11 C0.07692308 6.81538462 0.07692308 6.81538462 -0.3125 2.6875 C-0.209375 1.800625 -0.10625 0.91375 0 0 Z " fill="#203179" transform="translate(107,41)"/>
<path d="M0 0 C7.26153846 -0.49230769 7.26153846 -0.49230769 11 2 C11.66 2.66 12.32 3.32 13 4 C12 7 12 7 10.265625 8.1796875 C7.61680319 9.13874367 5.55934533 9.19893014 2.75 9.125 C1.85796875 9.10695313 0.9659375 9.08890625 0.046875 9.0703125 C-0.96632813 9.03550781 -0.96632813 9.03550781 -2 9 C-1.34 8.01 -0.68 7.02 0 6 C3.125 5.8125 3.125 5.8125 6 6 C5.38125 5.38125 4.7625 4.7625 4.125 4.125 C2.75 2.75 1.375 1.375 0 0 Z " fill="#F5C539" transform="translate(100,78)"/>
<path d="M0 0 C0.33 0 0.66 0 1 0 C1.33 2.64 1.66 5.28 2 8 C2.64066406 8.18175781 3.28132812 8.36351563 3.94140625 8.55078125 C17.48739496 12.48739496 17.48739496 12.48739496 21 16 C21.125 19.625 21.125 19.625 21 23 C20.34 23.33 19.68 23.66 19 24 C18.835 22.741875 18.67 21.48375 18.5 20.1875 C17.71898289 17.0143371 17.71898289 17.0143371 15.3671875 14.90625 C13.26392206 14.14742482 11.16536108 13.55648266 9 13 C1.32786885 10.49180328 1.32786885 10.49180328 -1 7 C-0.625 3.3125 -0.625 3.3125 0 0 Z " fill="#DBA740" transform="translate(138,60)"/>
<path d="M0 0 C2.16009196 2.45464995 3.010322 4.04515875 3.75 7.28125 C5.24716179 11.73530632 7.23733918 13.82927821 10.625 16.9375 C11.140625 17.43056641 11.65625 17.92363281 12.1875 18.43164062 C13.44712865 19.63295314 14.7220398 20.81820737 16 22 C13 23 13 23 11.09765625 22.06640625 C5.30805554 17.78810246 1.85301349 13.68792886 0.54296875 6.48828125 C0.28794259 4.3222591 0.10083844 2.17811027 0 0 Z " fill="#EE9324" transform="translate(88,47)"/>
<path d="M0 0 C2.95888673 0.30784377 5.91703167 0.62105574 8.875 0.9375 C9.71675781 1.02451172 10.55851562 1.11152344 11.42578125 1.20117188 C12.23144531 1.28818359 13.03710938 1.37519531 13.8671875 1.46484375 C14.61081543 1.543396 15.35444336 1.62194824 16.12060547 1.70288086 C18 2 18 2 20 3 C19.67 3.99 19.34 4.98 19 6 C15.02022924 6.8441938 11.02992782 7.44687265 7 8 C7.33 6.02 7.66 4.04 8 2 C3.545 2.495 3.545 2.495 -1 3 C-0.67 2.01 -0.34 1.02 0 0 Z " fill="#E2A237" transform="translate(97,86)"/>
<path d="M0 0 C4.82034262 0.41317222 6.90992611 2.38019915 10 6 C10 6.66 10 7.32 10 8 C10.66 8 11.32 8 12 8 C11.814375 8.61875 11.62875 9.2375 11.4375 9.875 C10.76313824 12.04160178 10.76313824 12.04160178 12 14 C9.75 13.875 9.75 13.875 7 13 C4.05960728 9.40618667 2.75453015 6.52718087 2 2 C1.34 1.34 0.68 0.68 0 0 Z " fill="#36BF70" transform="translate(127,85)"/>
<path d="M0 0 C2.12084872 0.98467976 3.90070657 1.91541671 5.6875 3.4375 C9.15638845 5.78134355 13.01486863 6.79935144 17 8 C17 8.99 17 9.98 17 11 C12.39080767 11.14838446 8.4887723 11.19049454 4.77734375 8.22265625 C0 2.79786961 0 2.79786961 0 0 Z " fill="#FBB132" transform="translate(91,54)"/>
<path d="M0 0 C0.9075 0.495 1.815 0.99 2.75 1.5 C6.00873038 3.27937212 6.00873038 3.27937212 10 3 C10 3.66 10 4.32 10 5 C7.45769108 6.54749238 5.87858735 7.47892004 3 8 C-0.54941206 7.08817716 -3.73502023 5.64891332 -7 4 C-6.1028125 3.566875 -6.1028125 3.566875 -5.1875 3.125 C-2.80672208 1.95257974 -2.80672208 1.95257974 0 0 Z " fill="#FAB033" transform="translate(95,66)"/>
<path d="M0 0 C0.99 0 1.98 0 3 0 C4.43336231 5.35121931 5.40984815 10.49191603 6 16 C4.0625 15.3125 4.0625 15.3125 2 14 C1.25 11.375 1.25 11.375 1 9 C0.01 8.67 -0.98 8.34 -2 8 C-1.34 5.36 -0.68 2.72 0 0 Z " fill="#D9B882" transform="translate(116,43)"/>
<path d="M0 0 C0.99 0 1.98 0 3 0 C2.67 1.98 2.34 3.96 2 6 C4.97 6.495 4.97 6.495 8 7 C8 8.32 8 9.64 8 11 C3.87248551 10.39301257 0.6678852 8.96189209 -3 7 C-2.25 2.25 -2.25 2.25 0 0 Z " fill="#F3CF76" transform="translate(152,96)"/>
<path d="M0 0 C1.65 0 3.3 0 5 0 C5.2475 0.9075 5.495 1.815 5.75 2.75 C7.03981342 6.10351489 8.31971042 7.67708236 11 10 C10.67 10.99 10.34 11.98 10 13 C3.66327406 10.96746526 3.66327406 10.96746526 1.8671875 8.34765625 C0.61699894 5.47707767 0 3.13573415 0 0 Z " fill="#F4D296" transform="translate(101,41)"/>
<path d="M0 0 C2 2 2 2 2 6 C-3.94 5.01 -3.94 5.01 -10 4 C-10 3.01 -10 2.02 -10 1 C-6.47940432 -0.17353189 -3.693507 -0.20146402 0 0 Z " fill="#2E3076" transform="translate(93,152)"/>
<path d="M0 0 C2.4375 0.8125 2.4375 0.8125 4.4375 3.8125 C2.4575 3.8125 0.4775 3.8125 -1.5625 3.8125 C-1.5625 5.1325 -1.5625 6.4525 -1.5625 7.8125 C0.35772703 9.58659808 0.35772703 9.58659808 2.4375 10.8125 C-0.4375 10.9375 -0.4375 10.9375 -3.5625 10.8125 C-5.5625 8.8125 -5.5625 8.8125 -5.875 5.3125 C-5.771875 4.1575 -5.66875 3.0025 -5.5625 1.8125 C-2.5625 -0.1875 -2.5625 -0.1875 0 0 Z " fill="#DEBD3F" transform="translate(123.5625,75.1875)"/>
<path d="M0 0 C3.67230705 3.07999946 4.56802365 5.2482602 5 10 C2.69 10 0.38 10 -2 10 C-2 7 -2 4 -2 1 C-1.34 0.67 -0.68 0.34 0 0 Z " fill="#F76D83" transform="translate(62,107)"/>
<path d="M0 0 C6.875 0.875 6.875 0.875 8 2 C8.04063832 3.66617115 8.042721 5.33388095 8 7 C6.68 7.33 5.36 7.66 4 8 C4 7.34 4 6.68 4 6 C3.01 5.67 2.02 5.34 1 5 C0.67 3.35 0.34 1.7 0 0 Z " fill="#F5C539" transform="translate(106,56)"/>
<path d="M0 0 C1.32 0.33 2.64 0.66 4 1 C4.41846009 2.57750424 4.80896389 4.16244248 5.1875 5.75 C5.40792969 6.63171875 5.62835938 7.5134375 5.85546875 8.421875 C6 11 6 11 4.55078125 13.328125 C3.78314453 14.15570313 3.78314453 14.15570313 3 15 C1.36511804 11.73023607 1.5472579 8.14135726 1.28125 4.53125 C1.14867388 2.00925996 1.14867388 2.00925996 0 0 Z " fill="#F55D5E" transform="translate(48,83)"/>
<path d="M0 0 C-0.57344937 2.86724686 -0.8614515 3.8614515 -3 6 C-6.625 6.125 -6.625 6.125 -10 6 C-10 5.34 -10 4.68 -10 4 C-6.68165449 0.77646436 -4.65842688 -0.53239164 0 0 Z " fill="#F66B82" transform="translate(115,145)"/>
<path d="M0 0 C3.96 0 7.92 0 12 0 C9 4 9 4 6.95703125 4.390625 C4.97135417 4.26041667 2.98567708 4.13020833 1 4 C0.67 2.68 0.34 1.36 0 0 Z " fill="#4AD584" transform="translate(139,80)"/>
<path d="M0 0 C1.32 0 2.64 0 4 0 C4.25 7.625 4.25 7.625 2 11 C1.01 10.67 0.02 10.34 -1 10 C-0.835 9.46375 -0.67 8.9275 -0.5 8.375 C0.09660212 5.54113991 0.0656368 2.8880194 0 0 Z " fill="#F7897F" transform="translate(95,152)"/>
<path d="M0 0 C0.26683594 0.56589844 0.53367187 1.13179687 0.80859375 1.71484375 C2.4971558 4.95356112 4.58879559 7.87568651 6.66015625 10.87890625 C8 13 8 13 9 16 C5.14686848 14.48626976 3.16964478 12.51632085 1 9 C0.39221367 6.00627562 0.13286183 3.04917893 0 0 Z " fill="#EF9121" transform="translate(99,46)"/>
<path d="M0 0 C4.25171681 3.3618226 7.6381774 6.74828319 11 11 C9.68 11.33 8.36 11.66 7 12 C7 11.34 7 10.68 7 10 C6.34 10 5.68 10 5 10 C0 4.76190476 0 4.76190476 0 0 Z " fill="#EE5163" transform="translate(132,83)"/>
<path d="M0 0 C1.2065625 0.0309375 1.2065625 0.0309375 2.4375 0.0625 C2.7675 1.3825 3.0975 2.7025 3.4375 4.0625 C2.674375 4.35125 1.91125 4.64 1.125 4.9375 C-1.71279308 6.02519013 -1.71279308 6.02519013 -4.5625 8.0625 C-3.54737544 0.08652135 -3.54737544 0.08652135 0 0 Z " fill="#FE4559" transform="translate(110.5625,140.9375)"/>
<path d="M0 0 C0.99 0.66 1.98 1.32 3 2 C3.30754089 5.53672026 3.04293785 8.61045199 2 12 C0.68 11.67 -0.64 11.34 -2 11 C-1.34 7.37 -0.68 3.74 0 0 Z " fill="#ED807F" transform="translate(56,82)"/>
<path d="M0 0 C4.29 0.33 8.58 0.66 13 1 C12.34 2.65 11.68 4.3 11 6 C10.34 6 9.68 6 9 6 C8.67 4.68 8.34 3.36 8 2 C3.545 2.495 3.545 2.495 -1 3 C-0.67 2.01 -0.34 1.02 0 0 Z " fill="#F19526" transform="translate(97,86)"/>
<path d="M0 0 C2.59094622 0.35012787 4.5774211 0.73770965 6.8125 2.125 C8.63883169 5.00868162 8.18806842 7.67745793 8 11 C7.01 11.495 7.01 11.495 6 12 C5.7525 10.72125 5.505 9.4425 5.25 8.125 C4.48009414 4.73252682 4.48009414 4.73252682 1.875 2.5 C1.25625 2.335 0.6375 2.17 0 2 C0 1.34 0 0.68 0 0 Z " fill="#ECC664" transform="translate(151,72)"/>
<path d="M0 0 C3.40110553 0.34011055 4.73341421 0.92091421 7.125 3.3125 C7.125 3.9725 7.125 4.6325 7.125 5.3125 C3.04121717 4.56999403 -0.89439223 3.48326699 -4.875 2.3125 C-2.875 0.3125 -2.875 0.3125 0 0 Z " fill="#F8961E" transform="translate(98.875,78.6875)"/>
<path d="M0 0 C4.82034262 0.41317222 6.90992611 2.38019915 10 6 C10 6.66 10 7.32 10 8 C10.66 8 11.32 8 12 8 C11.67 8.99 11.34 9.98 11 11 C7.33333333 7.33333333 3.66666667 3.66666667 0 0 Z " fill="#2C3B75" transform="translate(127,85)"/>
<path d="M0 0 C2.31 0 4.62 0 7 0 C7.33 1.32 7.66 2.64 8 4 C5.98177083 3.70703125 3.96354167 3.4140625 1.9453125 3.12109375 C-0.08140667 2.8315703 -0.08140667 2.8315703 -2 4 C-1.34 2.68 -0.68 1.36 0 0 Z " fill="#E96A63" transform="translate(81,144)"/>
<path d="M0 0 C2.6875 1.9375 2.6875 1.9375 5 4 C4.67 4.99 4.34 5.98 4 7 C1.69 6.01 -0.62 5.02 -3 4 C-3 3.01 -3 2.02 -3 1 C-2.01 0.67 -1.02 0.34 0 0 Z " fill="#DBB780" transform="translate(107,47)"/>
<path d="M0 0 C1.43931117 0.45261358 2.87638999 0.91232979 4.3125 1.375 C5.11300781 1.63023438 5.91351563 1.88546875 6.73828125 2.1484375 C9 3 9 3 12 5 C10.4375 5.75 10.4375 5.75 8 6 C4.77102114 4.63931677 1.61680316 3.23360633 0 0 Z " fill="#F69327" transform="translate(90,71)"/>
<path d="M0 0 C-1.65 1.65 -3.3 3.3 -5 5 C-5.99 4.67 -6.98 4.34 -8 4 C-7.67 3.01 -7.34 2.02 -7 1 C-4.53721199 -0.231394 -2.7204945 -0.07159196 0 0 Z " fill="#EEC986" transform="translate(125,125)"/>
<path d="M0 0 C3.125 -0.1875 3.125 -0.1875 6 0 C6 0.99 6 1.98 6 3 C3.36 3 0.72 3 -2 3 C-1.34 2.01 -0.68 1.02 0 0 Z " fill="#FDAF30" transform="translate(100,84)"/>
<path d="M0 0 C2.375 0.3125 2.375 0.3125 5 1 C5.66 1.99 6.32 2.98 7 4 C4.69 4 2.38 4 0 4 C0 2.68 0 1.36 0 0 Z " fill="#EFD471" transform="translate(121,75)"/>
<path d="M0 0 C1.32 0.66 2.64 1.32 4 2 C3.67 2.66 3.34 3.32 3 4 C0.69 4 -1.62 4 -4 4 C-2.68 2.68 -1.36 1.36 0 0 Z " fill="#F1CA8A" transform="translate(95,66)"/>
<path d="M0 0 C2.9375 0.375 2.9375 0.375 6 1 C6.33 1.66 6.66 2.32 7 3 C4.36 3 1.72 3 -1 3 C-0.67 2.01 -0.34 1.02 0 0 Z " fill="#273977" transform="translate(122,78)"/>
<path d="M0 0 C0.99 0 1.98 0 3 0 C3 1.98 3 3.96 3 6 C2.01 6 1.02 6 0 6 C0 4.02 0 2.04 0 0 Z " fill="#EBCB95" transform="translate(116,43)"/>
</svg>
